<svg width="60" height="60" viewBox="0 0 60 60" fill="none" xmlns="http://www.w3.org/2000/svg">
<circle cx="30" cy="30" r="29.5" fill="black" stroke="black"/>
<path d="M17.2803 33.3389L10.7041 30.4268V29.7773L17.2803 26.5234V27.5352L11.9346 30.0576L17.2803 32.334V33.3389ZM25.0951 25.0059L21.3764 35H20.2553L23.9809 25.0059H25.0951ZM33.115 35L29.7586 26.1543H29.7039C29.7221 26.3411 29.7381 26.569 29.7518 26.8379C29.7654 27.1068 29.7768 27.4007 29.7859 27.7197C29.7951 28.0342 29.7996 28.3555 29.7996 28.6836V35H28.7195V25.0059H30.4422L33.6072 33.3184H33.6551L36.868 25.0059H38.577V35H37.4285V28.6016C37.4285 28.3053 37.4331 28.0091 37.4422 27.7129C37.4513 27.4121 37.4627 27.1296 37.4764 26.8652C37.49 26.5964 37.5037 26.3639 37.5174 26.168H37.4627L34.0652 35H33.115ZM42.7482 32.334L48.1008 30.0713L42.7482 27.5352V26.5234L49.3244 29.7773V30.4268L42.7482 33.3389V32.334Z" fill="white"/>
</svg>
